<svg width="500" height="421" viewBox="0 0 500 421" fill="none" xmlns="http://www.w3.org/2000/svg">
<g id="lost-business-man-talking-with-phone-and-asking-for-help 1">
<path id="Vector" d="M448.036 305.416C449.73 311.702 450.745 315.948 450.745 315.948C450.745 315.948 449.668 311.914 448.036 305.416Z" fill="#9DADEC"/>
<path id="Vector_2" d="M32.28 305.416C33.973 311.702 34.987 315.948 34.987 315.948C34.987 315.948 33.91 311.914 32.28 305.416Z" fill="#9DADEC"/>
<path id="Vector_3" d="M425.431 316.894C425.209 317.373 425.083 317.628 425.083 317.628C425.083 317.628 425.199 317.366 425.431 316.894Z" fill="#577BC2"/>
<path id="Vector_4" d="M425.431 316.894C425.199 317.366 425.083 317.628 425.083 317.628C425.083 317.628 425.209 317.374 425.431 316.894C425.954 315.829 427.07 313.685 428.808 311.014L414.214 340.897L413.062 340.888L428.58 309.11C427.189 312.965 425.994 315.673 425.431 316.894ZM396.198 314.209C396.198 314.209 396.005 312.583 395.934 309.739L402.096 340.794L401.034 340.784L395.046 310.605C395.961 312.869 396.198 314.209 396.198 314.209Z" fill="#577BC2"/>
<path id="Vector_5" d="M90.087 325.01C89.682 326.643 89.501 327.576 89.501 327.576C89.501 327.576 89.742 326.67 90.087 325.01C90.8887 321.825 91.8306 318.678 92.91 315.576L86.81 342.443H85.746L91.275 318.088C90.865 321.026 90.426 323.379 90.087 325.01Z" fill="#577BC2"/>
<path id="Vector_6" d="M90.087 325.01C89.742 326.67 89.501 327.576 89.501 327.576C89.501 327.576 89.682 326.643 90.087 325.01ZM66.048 327.231C66.46 328.425 66.706 329.062 66.706 329.062C66.706 329.062 66.491 328.389 66.048 327.231C65.1881 324.716 64.4031 322.176 63.694 319.615L72.22 342.443H71.109L62.596 319.651C64.294 322.904 65.413 325.575 66.048 327.231Z" fill="#577BC2"/>
<path id="Vector_7" d="M66.048 327.231C66.492 328.389 66.706 329.062 66.706 329.062C66.706 329.062 66.459 328.425 66.048 327.231Z" fill="#577BC2"/>
<path id="Vector_8" d="M249.807 311.907C425.614 311.907 499.614 340.934 499.614 340.934C499.614 340.934 425.614 353.133 249.807 353.133C73.999 353.133 0 340.934 0 340.934C0 340.934 73.999 311.907 249.807 311.907Z" fill="#CFE6FD"/>
<path id="Vector_9" d="M217.561 332.535C217.561 332.535 211.21 336.454 206.341 336.869C201.472 337.284 198.742 337.908 198.386 341.114C198.03 344.319 211.506 343.281 213.821 342.806C216.137 342.331 226.644 343.221 228.07 342.331C229.495 341.441 227.951 332.952 227.357 331.705C226.764 330.457 217.561 332.535 217.561 332.535Z" fill="#0B4870"/>
<path id="Vector_10" d="M217.849 329.587L217.83 332.52C217.83 332.52 224.663 333.539 226.718 331.714L226.981 328.974L217.849 329.587Z" fill="#D3D3D3"/>
<path id="Vector_11" d="M250.508 331.628C250.508 331.628 246.62 336.223 242.571 337.277C238.522 338.332 234.009 340.314 234.051 342.886C234.094 345.459 247.379 345.712 252.187 343.393C256.995 341.073 259.779 340.472 260.496 338.517C261.213 336.559 259.368 331.436 259.401 330.819C259.442 330.056 250.508 331.628 250.508 331.628Z" fill="#0B4870"/>
<path id="Vector_12" d="M250.426 329.409C250.426 329.409 250.484 332.033 250.565 332.074C250.644 332.117 258.744 332.891 259.274 331.265C259.738 329.842 259.679 328.158 259.679 328.158L250.426 329.409Z" fill="#D3D3D3"/>
<path id="Vector_13" d="M229.19 221.716C229.19 221.716 208.798 256.136 204.488 264.307C200.497 271.88 206.739 288.363 207.7 293.822C208.703 299.526 218.201 327.671 217.632 329.663C217.062 331.655 228.117 328.973 228.117 328.973C228.117 328.973 221.693 279.039 221.029 274.009C220.365 268.979 243.066 237.452 244.396 239.444C245.723 241.436 246.492 276.468 247.156 281.969C247.82 287.474 249.974 329.238 249.974 329.238C249.974 329.238 259.841 330.853 262.023 327.342C262.023 327.342 262.592 283.407 262.688 279.516C262.782 275.624 267.959 237.053 263.163 219.44C260.626 210.136 229.19 221.716 229.19 221.716Z" fill="#0B4870"/>
<path id="Vector_14" d="M253.156 133.008L244.213 141.431L244.106 141.537L240.712 144.732L239.049 143.109L235.283 139.462L234.844 139.023L236.307 137.413L237.412 136.202L237.731 135.843L239.129 134.3L239.448 133.954L240.779 132.477V132.464L245.77 126.994L246.062 126.673L246.901 127.433L247.287 127.765L253.156 133.008Z" fill="#514E58"/>
<path id="Vector_15" d="M241.057 143.507L251.824 133.363L245.693 127.877L235.982 138.565L241.057 143.507Z" fill="#3E3B42"/>
<path id="Vector_16" d="M233.651 144.921C233.651 144.921 235.525 144.472 234.972 142.226C234.42 139.983 235.284 139.468 235.284 139.468L241.811 145.794C241.811 145.794 238.641 148.851 237.679 148.973C236.717 149.093 232.684 146.145 233.651 144.921Z" fill="#F1B99E"/>
<path id="Vector_17" d="M241.811 145.794C241.811 145.794 245.782 143.252 246.156 142.871C246.531 142.492 248.307 140.794 249.034 139.789C249.761 138.783 246.863 139.031 246.022 140.074C245.182 141.119 244.428 141.414 243.844 141.646C243.261 141.875 239.743 142.083 239.045 143.115C238.349 144.147 241.811 145.794 241.811 145.794ZM236.512 138.107C236.512 138.107 236.986 138.728 237.366 138.008C237.746 137.287 237.715 135.628 236.751 136.027C235.784 136.426 236.512 138.107 236.512 138.107ZM237.735 135.91C237.735 135.91 237.901 137.137 238.501 136.584C239.099 136.032 239.699 133.978 238.657 134.031C237.612 134.082 237.735 135.91 237.735 135.91ZM239.442 134.119C239.442 134.119 239.439 135.599 240.133 135.175C240.655 134.853 241.405 132.189 240.363 132.241C239.32 132.293 239.442 134.119 239.442 134.119ZM295.212 220.086C295.212 220.086 297.529 221.729 298.92 221.429C300.312 221.127 302.268 221.375 302.878 221.485C303.694 221.63 306.486 221.189 306.174 222.171C305.861 223.153 301.581 223.101 300.66 223.259C299.739 223.417 302.587 225.855 302.677 226.727C302.768 227.597 297.549 232.253 295.831 230.344C294.113 228.436 293.782 225.188 293.401 224.916C293.019 224.644 292.085 223.579 292.085 223.579L295.212 220.086Z" fill="#F1B99E"/>
<path id="Vector_18" d="M302.403 226.178C302.403 226.178 307.197 232.394 307.107 233.1C307.018 233.804 306.606 234.067 306.13 233.509C305.653 232.946 301.293 227.646 301.293 227.646C301.293 227.646 305.51 236.042 305.573 236.619C305.609 236.957 304.838 237.505 304.55 237.23C304.262 236.957 299.535 228.917 299.535 228.917C299.535 228.917 303.457 236.762 303.352 237.277C303.259 237.726 302.435 238.081 302.099 237.522C301.762 236.965 297.649 229.922 297.649 229.922C297.649 229.922 300.093 235.843 299.731 236.261C299.509 236.516 298.864 237.015 298.287 235.465C297.711 233.912 295.917 230.43 295.917 230.43L302.403 226.178Z" fill="#F1B99E"/>
<path id="Vector_19" d="M298.666 220.878C298.666 220.878 293.859 224.677 291.96 224.169C290.062 223.662 274.245 201.904 272.981 198.105C271.717 194.309 270.323 183.048 270.323 183.048C270.323 183.048 266.24 194.358 265.701 199.8C265.161 205.239 262.939 215.205 262.939 215.205L230.51 217.17C230.51 217.17 229.243 215.186 229.793 210.971C230.34 206.752 231.823 196.694 230.873 191.285C229.925 185.878 230.746 176.575 230.746 176.575C230.746 176.575 217.182 180.644 215.601 181.086C214.018 181.53 209.908 179.062 208.831 176.53C207.757 174.001 233.503 143.507 233.503 143.507L239.437 148.595L232.124 161.103C232.37 160.937 233.91 160.323 235.976 159.533C241.021 157.608 249.194 154.641 249.194 154.641C249.194 154.641 260.708 154.451 261.594 154.58C262.479 154.706 273.867 160.274 275.511 161.665C277.158 163.055 281.711 191.778 282.596 193.676C283.482 195.574 298.666 220.878 298.666 220.878Z" fill="#FFE3CA"/>
<path id="Vector_20" d="M230.51 217.168C230.51 217.168 229.701 217.995 229.19 221.717C229.19 221.717 259.841 220.583 263.162 219.443C263.162 219.443 263.614 215.329 262.938 215.205C262.196 215.066 230.51 217.168 230.51 217.168Z" fill="#0E538C"/>
<path id="Vector_21" d="M261.594 154.579C261.277 155.97 250.649 164.13 250.649 164.13C250.649 164.13 248.234 155.031 249.194 154.64C249.57 154.488 249.774 153.776 249.884 152.971C249.987 152.202 250.005 151.348 250.003 150.803C250.003 150.465 249.994 150.246 249.994 150.246C249.994 150.246 251.422 148.961 253.231 147.436C256.392 144.768 260.716 141.377 260.605 142.853C260.597 142.947 260.578 143.041 260.55 143.131C259.577 146.4 261.594 154.579 261.594 154.579Z" fill="#F1B99E"/>
<path id="Vector_22" d="M249.491 154.359L246.478 155.717L247.802 167.863L250.648 164.131L249.491 154.359ZM261.446 153.951L250.648 164.131L252.043 168.264L264.982 155.986L261.446 153.951Z" fill="#F2F2F2"/>
<path id="Vector_23" d="M255.941 215.384C255.941 215.384 256.273 219.616 256.244 220.71L257.672 220.541C257.672 220.541 257.636 216.088 257.466 215.328L255.941 215.384ZM233.082 216.882C233.082 216.882 232.248 220.638 232.121 222.072L233.623 221.998C233.623 221.998 234.304 217.278 234.513 216.795L233.082 216.882Z" fill="#0E538C"/>
<path id="Vector_24" d="M242.264 216.167C242.257 216.13 242.245 214.83 242.386 209.381C242.443 207.167 242.631 201.135 243.407 197.511C244.556 192.155 244.636 189.663 244.222 185.047C243.525 177.295 249.536 167.768 249.564 167.665L250.34 167.865C250.314 167.967 244.633 177.325 245.317 184.935C245.742 189.675 245.589 192.634 244.429 198.047C243.693 201.479 243.584 207.192 243.529 209.333C243.393 214.615 243.327 216.012 243.334 216.049L242.264 216.167Z" fill="#FCD2B1"/>
<path id="Vector_25" d="M251.333 168.152C251.333 168.152 250.522 182.922 240.968 185.072C231.415 187.223 218.7 195.51 214.967 200.129L210.411 206.139V199.432C210.411 199.432 212.31 188.408 240.589 183.829C240.589 183.829 248.702 183.294 248.406 167.794C248.406 167.795 251.388 167.507 251.333 168.152Z" fill="#FFBE55"/>
<path id="Vector_26" d="M258.619 146.278L258.618 146.279C258.597 146.303 258.16 146.86 257.425 147.647C255.867 149.316 252.972 152.032 249.884 152.971C249.987 152.202 250.005 151.348 250.003 150.803C249.695 150.773 249.391 150.712 249.095 150.62C250.03 149.253 251.335 147.842 251.335 147.842L253.231 147.437L258.619 146.278Z" fill="#A77860"/>
<path id="Vector_27" d="M262.885 133.566C262.632 134.817 261.94 136.015 261.168 136.894C261.474 138.809 261.182 141.804 261.182 141.804C260.982 142.165 260.796 142.524 260.61 142.856C259.665 144.532 258.88 145.797 258.614 146.277C258.614 146.29 258.6 146.303 258.587 146.317C258.427 146.635 258.002 147.116 257.429 147.648C255.779 149.164 252.771 151.107 250.003 150.801C249.695 150.779 249.391 150.716 249.099 150.615C247.994 150.281 246.716 149.657 246.09 148.179C245.515 146.798 245.048 145.374 244.693 143.921V143.907C244.503 143.107 244.347 142.299 244.227 141.485C244.227 141.459 244.214 141.446 244.214 141.432C244.174 141.153 244.147 140.887 244.12 140.621C243.389 134.233 245.212 129.536 245.891 128.057C246.037 127.738 246.131 127.565 246.131 127.565C246.131 127.565 246.41 127.512 246.902 127.433L247.288 127.765C249.444 127.965 251.6 127.272 255.5 127.845C260.105 128.509 255.579 136.522 255.579 136.522L258.162 136.269C258.162 135.565 258.268 134.766 258.401 134.033C258.839 131.584 263.404 130.984 262.885 133.566Z" fill="#F1B99E"/>
<path id="Vector_28" d="M246.901 127.432L247.287 127.764C246.896 127.734 246.508 127.667 246.13 127.563C246.13 127.563 245.983 127.351 245.771 126.992L246.063 126.671L246.901 127.432ZM262.885 133.566C262.632 134.817 261.94 136.015 261.168 136.894C261.062 136.201 260.862 135.656 260.556 135.43C259.371 134.591 258.161 136.267 258.161 136.267C258.161 135.563 258.267 134.764 258.4 134.031C258.839 131.584 263.404 130.984 262.885 133.566Z" fill="#515154"/>
<path id="Vector_29" d="M262.885 133.566C262.632 134.817 261.94 136.015 261.168 136.894C260.369 137.812 259.491 138.37 258.972 138.291C258.359 138.185 258.161 137.333 258.161 136.267C258.161 135.563 258.267 134.764 258.4 134.031C258.839 131.584 263.404 130.984 262.885 133.566Z" fill="#F1B99E"/>
<path id="Vector_30" d="M248.012 167.587C248.012 167.587 249.828 169.154 251.907 167.863C251.907 167.863 251.123 164.258 250.648 164.13C250.173 164.006 247.78 166.932 248.012 167.587Z" fill="#FCD2B1"/>
<path id="Vector_31" d="M246.053 215.914C246.053 215.914 241.541 216.091 240.035 216.342L240.227 221.343L246.336 220.979L246.053 215.914Z" fill="#FFBE55"/>
<path id="Vector_32" d="M235.975 159.533L225.787 171.25L232.123 161.103C232.37 160.937 233.91 160.323 235.975 159.533Z" fill="#D5BBAF"/>
<path id="Vector_33" d="M252.837 118.528C252.814 118.707 252.783 118.885 252.743 119.061C252.558 119.061 252.384 119.074 252.225 119.074C252.41 118.887 252.61 118.702 252.837 118.528Z" fill="#CCE9FF"/>
<path id="Vector_34" d="M252.837 118.528C252.814 118.707 252.783 118.885 252.743 119.061C252.558 119.061 252.384 119.074 252.225 119.074C252.41 118.887 252.61 118.702 252.837 118.528Z" fill="#CCE9FF"/>
<path id="Vector_35" d="M261.208 141.764C261.194 141.791 261.181 141.804 261.181 141.804C261.181 141.804 261.473 138.81 261.167 136.894C261.939 136.015 262.631 134.817 262.884 133.566C263.403 130.984 258.838 131.584 258.399 134.031C258.266 134.764 258.16 135.562 258.16 136.267L255.577 136.52C255.577 136.52 260.103 128.507 255.498 127.843C251.598 127.27 249.443 127.963 247.286 127.763L246.9 127.431L246.061 126.671L245.769 126.992C245.13 125.927 243.826 123.532 243.719 121.429C243.719 121.363 243.705 121.283 243.719 121.217C243.692 120.843 243.692 120.51 243.692 120.205C243.665 120.165 243.652 120.125 243.639 120.085C243.879 117.53 246.926 115.508 250.653 115.508C251.225 115.508 251.797 115.561 252.33 115.654C252.785 116.539 252.962 117.541 252.836 118.528C252.62 118.696 252.415 118.878 252.224 119.073C252.383 119.073 252.557 119.06 252.742 119.06C252.783 118.887 252.809 118.716 252.836 118.528C253.634 117.915 254.659 117.436 255.843 117.13C256.765 116.896 257.713 116.779 258.665 116.784C262.857 116.784 266.264 118.967 266.264 121.655V121.669C266.796 122.413 267.236 123.558 267.382 125.315C268.088 133.712 261.687 141.232 261.208 141.764Z" fill="#0B4870"/>
<path id="Vector_36" d="M243.694 120.205C243.694 120.51 243.694 120.843 243.721 121.217C243.646 120.962 243.609 120.697 243.614 120.431C243.614 120.312 243.614 120.205 243.64 120.085C243.654 120.125 243.667 120.165 243.694 120.205ZM252.225 119.073C252.41 118.887 252.61 118.702 252.837 118.528C252.814 118.707 252.783 118.885 252.743 119.061C252.558 119.06 252.384 119.073 252.225 119.073Z" fill="#0B4870"/>
<path id="Vector_37" d="M255.844 117.131C254.66 117.437 253.635 117.915 252.837 118.528C252.963 117.541 252.787 116.539 252.331 115.654C253.715 115.893 254.926 116.412 255.844 117.131Z" fill="#0B4870"/>
<path id="Vector_38" d="M167.082 127.327C170.131 127.69 172.414 129.324 173.932 132.228C175.468 135.166 175.767 137.859 174.831 140.303C173.895 142.749 172.054 144.883 169.309 146.707L171.444 151.654L165.265 154.884L160.961 147.392C163.993 145.378 165.966 143.56 166.884 141.943C167.8 140.323 167.844 138.721 167.014 137.134C166.326 135.817 165.344 135.03 164.07 134.771C162.796 134.513 161.279 134.844 159.524 135.761C157.768 136.678 156.601 137.924 156.025 139.492C155.448 141.062 155.568 142.794 156.387 144.688L148.372 145.396C147.399 142.465 147.603 139.628 148.986 136.884C150.367 134.14 153.018 131.744 156.935 129.696C160.649 127.755 164.031 126.967 167.082 127.327ZM173.823 155.956C174.969 156.259 175.861 157.018 176.497 158.235C177.132 159.452 177.248 160.617 176.842 161.732C176.435 162.847 175.557 163.757 174.207 164.463C172.856 165.17 171.616 165.366 170.486 165.056C169.355 164.744 168.472 163.981 167.837 162.764C167.202 161.548 167.079 160.387 167.466 159.28C167.855 158.174 168.726 157.267 170.077 156.56C171.426 155.855 172.675 155.653 173.823 155.956ZM341.244 122.342C343.73 125.341 344.403 128.84 343.26 132.838C342.105 136.883 340.027 139.621 337.029 141.052C334.03 142.483 330.471 142.835 326.354 142.11L323.992 148.528L315.484 146.096L318.075 135.447C322.624 136.246 326.028 136.299 328.287 135.612C330.544 134.925 331.986 133.488 332.611 131.302C333.129 129.49 332.914 127.907 331.968 126.556C331.022 125.203 329.339 124.183 326.923 123.492C324.505 122.801 322.344 122.927 320.442 123.867C318.539 124.806 317.136 126.505 316.233 128.961L308.243 122.605C309.91 119.058 312.578 116.629 316.248 115.313C319.916 113.999 324.448 114.112 329.842 115.654C334.955 117.114 338.755 119.345 341.244 122.342ZM322.419 154.564C323.207 155.846 323.364 157.325 322.885 158.998C322.407 160.671 321.494 161.843 320.146 162.515C318.797 163.185 317.192 163.255 315.333 162.724C313.474 162.191 312.161 161.288 311.394 160.013C310.627 158.739 310.482 157.263 310.96 155.59C311.438 153.917 312.34 152.742 313.665 152.062C314.99 151.386 316.582 151.312 318.442 151.844C320.302 152.375 321.627 153.283 322.419 154.564ZM247.117 71.369C248.214 72.692 248.512 74.235 248.008 75.998C247.498 77.783 246.581 78.991 245.258 79.622C243.935 80.255 242.364 80.409 240.548 80.09L239.506 82.92L235.753 81.847L236.897 77.149C238.904 77.503 240.405 77.525 241.402 77.222C242.397 76.92 243.034 76.286 243.309 75.321C243.537 74.521 243.443 73.824 243.025 73.227C242.607 72.632 241.866 72.181 240.801 71.876C239.732 71.571 238.781 71.627 237.941 72.041C237.101 72.455 236.481 73.205 236.085 74.29L232.559 71.485C233.295 69.921 234.473 68.849 236.09 68.269C237.708 67.689 239.708 67.738 242.089 68.419C244.344 69.062 246.02 70.045 247.117 71.369ZM238.811 85.583C239.161 86.148 239.228 86.801 239.017 87.54C238.807 88.279 238.405 88.795 237.809 89.09C237.214 89.386 236.506 89.418 235.686 89.183C234.866 88.948 234.286 88.55 233.948 87.986C233.609 87.425 233.546 86.774 233.756 86.035C233.967 85.298 234.365 84.778 234.95 84.479C235.535 84.181 236.237 84.148 237.058 84.383C237.879 84.619 238.463 85.018 238.811 85.583Z" fill="#FFBE55"/>
</g>
</svg>
