<svg width="197" height="98" viewBox="0 0 197 98" fill="none" xmlns="http://www.w3.org/2000/svg">
<path id="Vector" d="M19.3131 59.4588C22.3621 59.8218 24.6451 61.4558 26.1631 64.3598C27.6991 67.2978 27.9981 69.9908 27.0621 72.4348C26.1261 74.8808 24.2851 77.0148 21.5401 78.8388L23.6751 83.7858L17.4961 87.0158L13.1921 79.5238C16.2241 77.5098 18.1971 75.6918 19.1151 74.0748C20.0311 72.4548 20.0751 70.8528 19.2451 69.2658C18.5571 67.9488 17.5751 67.1618 16.3011 66.9028C15.0271 66.6448 13.5101 66.9758 11.7551 67.8928C9.99914 68.8098 8.83213 70.0558 8.25613 71.6238C7.67913 73.1938 7.79913 74.9258 8.61813 76.8198L0.603128 77.5278C-0.369872 74.5968 -0.165874 71.7598 1.21713 69.0158C2.59813 66.2718 5.24913 63.8758 9.16613 61.8278C12.8801 59.8868 16.2621 59.0988 19.3131 59.4588ZM26.0541 88.0878C27.2001 88.3908 28.0921 89.1498 28.7281 90.3668C29.3631 91.5838 29.4791 92.7488 29.0731 93.8638C28.6661 94.9788 27.7881 95.8888 26.4381 96.5948C25.0871 97.3018 23.8471 97.4978 22.7171 97.1878C21.5861 96.8758 20.7031 96.1128 20.0681 94.8958C19.4331 93.6798 19.3101 92.5188 19.6971 91.4118C20.0861 90.3058 20.9571 89.3988 22.3081 88.6918C23.6571 87.9868 24.9061 87.7848 26.0541 88.0878ZM193.475 54.4738C195.961 57.4728 196.634 60.9718 195.491 64.9698C194.336 69.0148 192.258 71.7528 189.26 73.1838C186.261 74.6148 182.702 74.9668 178.585 74.2418L176.223 80.6598L167.715 78.2278L170.306 67.5788C174.855 68.3778 178.259 68.4308 180.518 67.7438C182.775 67.0568 184.217 65.6198 184.842 63.4338C185.36 61.6218 185.145 60.0388 184.199 58.6878C183.253 57.3348 181.57 56.3148 179.154 55.6238C176.736 54.9328 174.575 55.0588 172.673 55.9988C170.77 56.9378 169.367 58.6368 168.464 61.0928L160.474 54.7368C162.141 51.1898 164.809 48.7608 168.479 47.4448C172.147 46.1308 176.679 46.2438 182.073 47.7858C187.186 49.2458 190.986 51.4768 193.475 54.4738ZM174.65 86.6958C175.438 87.9778 175.595 89.4568 175.116 91.1298C174.638 92.8028 173.725 93.9748 172.377 94.6468C171.028 95.3168 169.423 95.3868 167.564 94.8558C165.705 94.3228 164.392 93.4198 163.625 92.1448C162.858 90.8708 162.713 89.3948 163.191 87.7218C163.669 86.0488 164.571 84.8738 165.896 84.1938C167.221 83.5178 168.813 83.4438 170.673 83.9758C172.533 84.5068 173.858 85.4148 174.65 86.6958ZM99.3481 3.50082C100.445 4.82382 100.743 6.36682 100.239 8.12982C99.7291 9.91482 98.8121 11.1228 97.4891 11.7538C96.1661 12.3868 94.5951 12.5408 92.7791 12.2218L91.7371 15.0518L87.9841 13.9788L89.1281 9.28082C91.1351 9.63482 92.6361 9.65682 93.6331 9.35382C94.6281 9.05182 95.2651 8.41782 95.5401 7.45282C95.7681 6.65282 95.6741 5.95582 95.2561 5.35882C94.8381 4.76382 94.0971 4.31282 93.0321 4.00782C91.9631 3.70282 91.0121 3.75882 90.1721 4.17282C89.3321 4.58682 88.7121 5.33682 88.3161 6.42182L84.7901 3.61682C85.5261 2.05282 86.7041 0.980819 88.3211 0.400819C89.9391 -0.179181 91.9391 -0.13018 94.3201 0.55082C96.5751 1.19382 98.2511 2.17682 99.3481 3.50082ZM91.0421 17.7148C91.3921 18.2798 91.4591 18.9328 91.2481 19.6718C91.0381 20.4108 90.6361 20.9268 90.0401 21.2218C89.4451 21.5178 88.7371 21.5498 87.9171 21.3148C87.0971 21.0798 86.5171 20.6818 86.1791 20.1178C85.8401 19.5568 85.7771 18.9058 85.9871 18.1668C86.1981 17.4298 86.5961 16.9098 87.1811 16.6108C87.7661 16.3128 88.4681 16.2798 89.2891 16.5148C90.1101 16.7508 90.6941 17.1498 91.0421 17.7148Z" fill="#2F86A6"/>
</svg>
